<mxfile host="Electron" agent="Mozilla/5.0 (Macintosh; Intel Mac OS X 10_15_7) AppleWebKit/537.36 (KHTML, like Gecko) draw.io/28.0.6 Chrome/138.0.7204.100 Electron/37.2.3 Safari/537.36" version="28.0.6">
  <diagram name="Page-1" id="VyMq4LRKyuPuYrnLPx0s">
    <mxGraphModel dx="749" dy="503" grid="1" gridSize="10" guides="1" tooltips="1" connect="1" arrows="1" fold="1" page="1" pageScale="1" pageWidth="850" pageHeight="1100" math="0" shadow="0">
      <root>
        <mxCell id="0" />
        <mxCell id="1" parent="0" />
        <mxCell id="EJjgfz7IU2gDngyfwRG--7" style="edgeStyle=orthogonalEdgeStyle;rounded=0;orthogonalLoop=1;jettySize=auto;html=1;startArrow=none;startFill=0;endArrow=none;endFill=0;" edge="1" parent="1" source="EJjgfz7IU2gDngyfwRG--1" target="EJjgfz7IU2gDngyfwRG--3">
          <mxGeometry relative="1" as="geometry" />
        </mxCell>
        <mxCell id="EJjgfz7IU2gDngyfwRG--8" style="edgeStyle=orthogonalEdgeStyle;rounded=0;orthogonalLoop=1;jettySize=auto;html=1;endArrow=none;endFill=0;" edge="1" parent="1" source="EJjgfz7IU2gDngyfwRG--1" target="EJjgfz7IU2gDngyfwRG--5">
          <mxGeometry relative="1" as="geometry" />
        </mxCell>
        <mxCell id="EJjgfz7IU2gDngyfwRG--14" style="edgeStyle=orthogonalEdgeStyle;rounded=0;orthogonalLoop=1;jettySize=auto;html=1;startArrow=none;startFill=0;endArrow=none;endFill=0;" edge="1" parent="1" source="EJjgfz7IU2gDngyfwRG--1">
          <mxGeometry relative="1" as="geometry">
            <mxPoint x="470" y="260" as="targetPoint" />
          </mxGeometry>
        </mxCell>
        <mxCell id="EJjgfz7IU2gDngyfwRG--1" value="" style="image;aspect=fixed;html=1;points=[];align=center;fontSize=12;image=img/lib/azure2/compute/App_Services.svg;" vertex="1" parent="1">
          <mxGeometry x="336" y="310" width="64" height="64" as="geometry" />
        </mxCell>
        <mxCell id="EJjgfz7IU2gDngyfwRG--3" value="" style="image;aspect=fixed;html=1;points=[];align=center;fontSize=12;image=img/lib/azure2/databases/SQL_Database.svg;" vertex="1" parent="1">
          <mxGeometry x="256" y="200" width="48" height="64" as="geometry" />
        </mxCell>
        <mxCell id="EJjgfz7IU2gDngyfwRG--5" value="" style="image;sketch=0;aspect=fixed;html=1;points=[];align=center;fontSize=12;image=img/lib/mscae/Cache_Redis_Product.svg;" vertex="1" parent="1">
          <mxGeometry x="332.88" y="205" width="70.24" height="59" as="geometry" />
        </mxCell>
        <mxCell id="EJjgfz7IU2gDngyfwRG--10" value="" style="image;html=1;image=img/lib/clip_art/computers/Laptop_128x128.png" vertex="1" parent="1">
          <mxGeometry x="529" y="420" width="80" height="80" as="geometry" />
        </mxCell>
        <mxCell id="EJjgfz7IU2gDngyfwRG--12" style="edgeStyle=orthogonalEdgeStyle;rounded=0;orthogonalLoop=1;jettySize=auto;html=1;endArrow=none;endFill=0;" edge="1" parent="1" source="EJjgfz7IU2gDngyfwRG--11" target="EJjgfz7IU2gDngyfwRG--10">
          <mxGeometry relative="1" as="geometry" />
        </mxCell>
        <mxCell id="EJjgfz7IU2gDngyfwRG--11" value="" style="image;aspect=fixed;html=1;points=[];align=center;fontSize=12;image=img/lib/azure2/compute/App_Services.svg;" vertex="1" parent="1">
          <mxGeometry x="537" y="310" width="64" height="64" as="geometry" />
        </mxCell>
        <mxCell id="EJjgfz7IU2gDngyfwRG--13" style="edgeStyle=orthogonalEdgeStyle;rounded=0;orthogonalLoop=1;jettySize=auto;html=1;entryX=0.5;entryY=0.953;entryDx=0;entryDy=0;entryPerimeter=0;endArrow=none;endFill=0;" edge="1" parent="1" source="EJjgfz7IU2gDngyfwRG--10" target="EJjgfz7IU2gDngyfwRG--1">
          <mxGeometry relative="1" as="geometry" />
        </mxCell>
        <mxCell id="EJjgfz7IU2gDngyfwRG--15" value="API" style="text;html=1;align=center;verticalAlign=middle;whiteSpace=wrap;rounded=0;" vertex="1" parent="1">
          <mxGeometry x="296" y="360" width="60" height="30" as="geometry" />
        </mxCell>
        <mxCell id="EJjgfz7IU2gDngyfwRG--16" value="SPA" style="text;html=1;align=center;verticalAlign=middle;whiteSpace=wrap;rounded=0;" vertex="1" parent="1">
          <mxGeometry x="586" y="360" width="60" height="30" as="geometry" />
        </mxCell>
        <mxCell id="EJjgfz7IU2gDngyfwRG--17" value="SQL" style="text;html=1;align=center;verticalAlign=middle;whiteSpace=wrap;rounded=0;" vertex="1" parent="1">
          <mxGeometry x="250" y="160" width="60" height="30" as="geometry" />
        </mxCell>
        <mxCell id="EJjgfz7IU2gDngyfwRG--18" value="Redis" style="text;html=1;align=center;verticalAlign=middle;whiteSpace=wrap;rounded=0;" vertex="1" parent="1">
          <mxGeometry x="343" y="160" width="60" height="30" as="geometry" />
        </mxCell>
        <mxCell id="EJjgfz7IU2gDngyfwRG--19" value="Queue" style="text;html=1;align=center;verticalAlign=middle;whiteSpace=wrap;rounded=0;" vertex="1" parent="1">
          <mxGeometry x="444" y="160" width="60" height="30" as="geometry" />
        </mxCell>
        <mxCell id="EJjgfz7IU2gDngyfwRG--20" value="" style="verticalLabelPosition=bottom;html=1;verticalAlign=top;align=center;strokeColor=none;fillColor=#00BEF2;shape=mxgraph.azure.storage_queue;" vertex="1" parent="1">
          <mxGeometry x="440" y="200" width="60" height="60" as="geometry" />
        </mxCell>
      </root>
    </mxGraphModel>
  </diagram>
</mxfile>
